# xmcd
#
# Track frame offsets:
# 225
# 12151
# 29159
# 44650
# 54212
# 64634
# 78556
# 90332
# 103450
# 113970
# 126051
# 133797
# 149977
# 163671
# 178807
# 191862
# 203946
#
# Disc length: 2830 seconds
#
#
# Revision: 1
# Processed by: cddbd v1.5.1PL0 Copyright (c) Steve Scherf et al.
# Submitted via: FreeRIP 2.93 
#
DISCID=070b0b11
DTITLE=Country Gold&Trucker Hits-Six Days On The Road
DYEAR=2002
DGENRE=Country
TTITLE0=Telly Savallas - Some Broken Hearts Never Ment
TTITLE1=Glen Campell - Southern Nights
TTITLE2=Olivia Newton John - Help Me Make It Through The Night
TTITLE3=Dolly Parton - Release Me
TTITLE4=Dave Dudley - Six Days On The Road
TTITLE5=Don Williams - Crying In The Rain
TTITLE6=Charlie Pride - There Goes My Everything
TTITLE7=Don Williams and The Pozo Seco Singers - Ruby Thuesday
TTITLE8=Floyd Cramer - San Antonio Rose
TTITLE9=Ray Charles - See See Rider
TTITLE10=George Jones - Jambalaya (On The Bayou)
TTITLE11=Patsy Cline with Mala Mason - Crazy Dreams
TTITLE12=Freddy Fender - Wasted Days And Wasted Nights
TTITLE13=Anne Murray - Both Sides Now
TTITLE14=Kenny Rogers - Ruby, Don't Take Your Love To Town
TTITLE15=Tammy Wynette - Stand By Your Man
TTITLE16=Johnny Cash - Country Boy
EXTD=YEAR: 2002
EXTT0=
EXTT1=
EXTT2=
EXTT3=
EXTT4=
EXTT5=
EXTT6=
EXTT7=
EXTT8=
EXTT9=
EXTT10=
EXTT11=
EXTT12=
EXTT13=
EXTT14=
EXTT15=
EXTT16=
PLAYORDER=
